<svg xmlns="http://www.w3.org/2000/svg" viewBox="0 0 515.05 453.01"><defs><style>.cls-1{fill:#f2f7fc;}.cls-14,.cls-2,.cls-20,.cls-4{fill:#fff;}.cls-10,.cls-15,.cls-18,.cls-2,.cls-20,.cls-3,.cls-5,.cls-6,.cls-7,.cls-8,.cls-9{stroke:#141414;}.cls-15,.cls-18,.cls-2,.cls-20,.cls-5{stroke-miterlimit:10;}.cls-2{stroke-width:0.95px;}.cls-21,.cls-3{fill:#fcb814;}.cls-10,.cls-3,.cls-6,.cls-7,.cls-8,.cls-9{stroke-miterlimit:10;}.cls-3{stroke-width:1.06px;}.cls-13,.cls-19,.cls-5{fill:none;}.cls-18,.cls-5{stroke-width:1.02px;}.cls-10,.cls-18,.cls-6{fill:#68c3ee;}.cls-6,.cls-7{stroke-width:1.02px;}.cls-7,.cls-9{fill:#eb5f65;}.cls-8{fill:#44bdad;}.cls-10,.cls-8,.cls-9{stroke-width:0.95px;}.cls-11{fill:#f8cc66;}.cls-12{fill:#2694d1;}.cls-14{isolation:isolate;opacity:0.4;}.cls-15,.cls-16{fill:#89e3d3;}.cls-15{stroke-width:0.86px;}.cls-17{fill:#141414;}.cls-19{stroke:#161616;stroke-linecap:round;stroke-linejoin:round;}.cls-20{stroke-width:1.36px;}</style></defs><g id="Layer_2" data-name="Layer 2"><g id="Layer_1-2" data-name="Layer 1"><g id="Layer_1-3" data-name="Layer 1"><path class="cls-1" d="M475.09,150.14c10.52,29.71,15,62.53,6.31,92.81-6.57,22.77-63.81,60.81-131.89,50-29.3-4.68-59.65,16.21-77.17,44.18-8.3,13.26-7,30.28-9,45.27-4.55,33.24-28.31,66.38-61.64,70.24-32.19,3.72-70.08-21.81-93.92-41.26-61.41-50.1-94.68-139-61.27-215.17C62.7,159.28,97,127,127.26,101.21,159,74.21,201.46,62,242.53,59.93c50.91-2.51,101.09,9,150,21.63C430,91.21,461.68,112.26,475.09,150.14Z"/><path class="cls-1" d="M110.46,96.85c5.33-1.68,10.69-3.7,15-7.31,5.92-5,9.09-12.45,11.84-19.7,2.54-6.71,4.92-13.58,5.66-20.73,1.93-18.47-8.34-37.62-24.79-46.24-5.43-2.85-12.55-4.43-17.34-.62-2.1,1.67-3.39,4.12-4.63,6.5L83.73,32.69C79.39,41,73.37,50.5,64,50.86c-9.15.35-17.12-5.36-24.52,3.2-5,5.76-6.73,16.43-5,23.76,3.86,16.2,25.92,22.93,40.33,24.1C86.85,102.89,99,100.48,110.46,96.85Z"/><path class="cls-1" d="M289.36,360c-2.59,15,7.27,43.21,21.88,49.58,6.78,3,12.95,2.28,19.27-1.25a57.47,57.47,0,0,0,15.65-12.57c3.77-4.44,6-10,7.61-15.53,3.15-10.47,5.1-23.51,15.07-29.93,3.83-2.46,8.49-3.57,12-6.53,7.75-6.66,5.29-20.48-2.81-25.92-7-4.66-17-4.81-24.94-3.31C324.71,319.93,294.16,332.27,289.36,360Z"/><path class="cls-1" d="M20.06,119.48c.3,8.94,8.64,16.83,17.58,16.62,10.33-.23,15.87-17,8.9-24C38,103.48,19.54,104.76,20.06,119.48Z"/><circle class="cls-2" cx="245.04" cy="197.2" r="108.56"/><circle class="cls-3" cx="245.04" cy="197.21" r="33.5" transform="translate(-67.68 231.03) rotate(-45)"/><path class="cls-4" d="M259.89,212.56a15.23,15.23,0,0,0-30.46,0C229.43,212.62,259.89,212.64,259.89,212.56Z"/><path class="cls-4" d="M236.11,186.57a8.65,8.65,0,1,0,8.65-8.65A8.65,8.65,0,0,0,236.11,186.57Z"/><circle class="cls-5" cx="245.14" cy="197.25" r="68.17"/><circle class="cls-6" cx="284.66" cy="145.35" r="17.84" transform="translate(-19.4 243.86) rotate(-45)"/><circle class="cls-7" cx="192.02" cy="236.92" r="17.84" transform="translate(-111.28 205.17) rotate(-45)"/><circle class="cls-8" cx="189.57" cy="105.12" r="16.64" transform="translate(-18.81 164.83) rotate(-45)"/><circle class="cls-9" cx="353.87" cy="198.2" r="16.64" transform="translate(-36.5 308.28) rotate(-45)"/><path class="cls-4" d="M292.29,147a1.31,1.31,0,0,0,1.43-1.2,1.33,1.33,0,0,0-1.2-1.43h-.61a1.32,1.32,0,1,0,0-2.64h0l-5.23.07a8.31,8.31,0,0,0,.86-5,1.29,1.29,0,0,0-1.28-1.15h0a1.29,1.29,0,0,0-1.28,1.12c-.29,2.11-1.29,3-2.19,4.27a6.73,6.73,0,0,0-1.15,3.2v4.66a2.34,2.34,0,0,0,2.34,2.34h7.93a.92.92,0,0,0,1-.83.94.94,0,0,0-.83-1h-.19a1.17,1.17,0,1,0,0-2.34h0Z"/><rect class="cls-4" x="276.84" y="141.76" width="3.78" height="9.44" rx="0.86"/><path class="cls-4" d="M194.54,237.92l-1.63,1.63a1.81,1.81,0,0,1-2.5,0l-1.62-1.63-5.85,5.86a1.57,1.57,0,0,0,.71.16h16a1.57,1.57,0,0,0,.71-.16Z"/><path class="cls-4" d="M199.66,230.28h-16a1.89,1.89,0,0,0-.71.16l6.25,6.27h0l2,2a.69.69,0,0,0,.88,0l2-2h0l6.24-6.27A1.88,1.88,0,0,0,199.66,230.28Z"/><path class="cls-4" d="M182.12,231.24a1.64,1.64,0,0,0-.19.75v10.25a1.61,1.61,0,0,0,.19.75l5.85-5.88Z"/><path class="cls-4" d="M201.19,231.24l-5.86,5.87,5.86,5.88a1.63,1.63,0,0,0,.18-.75V232A1.66,1.66,0,0,0,201.19,231.24Z"/><path class="cls-4" d="M198.45,102.94l-1.51-.19a7.64,7.64,0,0,0-.46-1.11l.93-1.21a1.21,1.21,0,0,0-.09-1.6L196,97.56a1.21,1.21,0,0,0-1.6-.1l-1.2.94a9,9,0,0,0-1.11-.46l-.2-1.52a1.21,1.21,0,0,0-1.2-1.06h-1.81a1.22,1.22,0,0,0-1.2,1.06l-.19,1.52a7.64,7.64,0,0,0-1.11.46l-1.21-.94a1.18,1.18,0,0,0-1.59.1l-1.28,1.27a1.21,1.21,0,0,0-.1,1.6l.94,1.21a6.67,6.67,0,0,0-.46,1.11l-1.52.19a1.21,1.21,0,0,0-1.06,1.2V106a1.19,1.19,0,0,0,1.06,1.2l1.52.19a6,6,0,0,0,.46,1.11l-.94,1.21a1.21,1.21,0,0,0,.1,1.6l1.27,1.27a1.2,1.2,0,0,0,1.6.1l1.21-.93a5.87,5.87,0,0,0,1.11.45l.19,1.52a1.22,1.22,0,0,0,1.2,1.07h1.81a1.21,1.21,0,0,0,1.2-1.07l.2-1.51a7.52,7.52,0,0,0,1.1-.46l1.21.93a1.21,1.21,0,0,0,1.6-.09l1.27-1.28a1.2,1.2,0,0,0,.1-1.6l-.93-1.21a7.2,7.2,0,0,0,.46-1.11l1.51-.19a1.2,1.2,0,0,0,1.07-1.2v-1.81A1.23,1.23,0,0,0,198.45,102.94Zm-8.62,6.14a4,4,0,1,1,4-4A4,4,0,0,1,189.83,109.08Z"/><path class="cls-4" d="M352.7,194c-4.14,0-7.55,2.84-7.55,6.34a6,6,0,0,0,1.54,3.93l-1.4,1.6a.53.53,0,0,0,0,.75.47.47,0,0,0,.37.14h7.54c3.06,0,7-2.63,7-6.42C360.24,196.86,356.84,194,352.7,194Zm-3.26,7.33a1.08,1.08,0,1,1,1.08-1.08,1.08,1.08,0,0,1-1.08,1.08Zm3.26,0a1.08,1.08,0,0,1-.21-2.15h.21a1.08,1.08,0,0,1,0,2.15Zm3.25,0a1.08,1.08,0,0,1,0-2.16,1.09,1.09,0,0,1,1.09,1.07h0A1.07,1.07,0,0,1,356,201.35Z"/><path class="cls-4" d="M363.33,199.39l-1.26-1.48a5.27,5.27,0,0,0,1.39-3.54c0-3.25-3.13-5.89-7-5.89-3.48,0-6.43,2.16-7,5a10,10,0,0,1,3.16-.52c4.69,0,8.55,3.28,8.61,7.33h1.61a.53.53,0,0,0,.64-.39A.52.52,0,0,0,363.33,199.39Z"/><circle class="cls-10" cx="252.59" cy="302.78" r="16.64"/><path class="cls-4" d="M252,296.09a.57.57,0,0,0,.53-.6h0v-1.87a.57.57,0,1,0-1.13-.15.38.38,0,0,0,0,.15v1.87a.57.57,0,0,0,.53.61Z"/><path class="cls-4" d="M254.66,297.05a.56.56,0,0,0,.4-.17l1.51-1.51a.57.57,0,0,0-.8-.8l-1.51,1.51a.57.57,0,0,0,0,.8.56.56,0,0,0,.4.17Z"/><path class="cls-4" d="M249,296.88a.58.58,0,0,0,.41.17.56.56,0,0,0,.4-.17.57.57,0,0,0,0-.8l-1.52-1.51a.58.58,0,0,0-.8-.1.57.57,0,0,0-.1.8l.1.1Z"/><path class="cls-4" d="M257.11,301.1l-2.2-2.21a2.36,2.36,0,0,0-1.61-.66h-3.44a3.22,3.22,0,0,0-2.28.94l-.18.18h-4.5a.59.59,0,0,0-.57.57v6a.58.58,0,0,0,.57.57h2.83l1.34,1.35a.55.55,0,0,0,.4.16H248a2.36,2.36,0,0,1-.36-1,2.3,2.3,0,0,1-1.1-.74,2.41,2.41,0,0,1,.29-3.38h0l2.15-1.81h4.31a.59.59,0,0,1,.4.16l1.58,1.59a1.31,1.31,0,0,0,1.85,0,1.29,1.29,0,0,0,0-1.8Z"/><path class="cls-4" d="M261.69,301.1a.56.56,0,0,0-.56-.56h-3a2.42,2.42,0,0,1-3.63,3.18l-1.44-1.44H249.3l-.45.37-1.44,1.21a2.89,2.89,0,0,1,1.49,3.76,1.29,1.29,0,1,1,1.64,2,1.27,1.27,0,0,0,1.8.16l1-.84-.14.11a1.3,1.3,0,0,0,1.65,2l3.85-3.23h2.44a.56.56,0,0,0,.56-.56h0Z"/><path class="cls-11" d="M379.54,300.32h0a.68.68,0,0,1-.6-.37L375,292.73l-7.2-4a.69.69,0,0,1-.27-1,.87.87,0,0,1,.27-.27l7.23-3.92,4-7.2a.7.7,0,0,1,.61-.36h0a.7.7,0,0,1,.61.36l3.92,7.22,7.2,4a.69.69,0,0,1,.27.94.59.59,0,0,1-.27.27l-7.22,3.93-4,7.2A.68.68,0,0,1,379.54,300.32Zm-10-12.15,6.27,3.45a.78.78,0,0,1,.27.27l3.46,6.29,3.45-6.27a.8.8,0,0,1,.27-.28l6.29-3.41-6.27-3.45a.61.61,0,0,1-.27-.28l-3.42-6.28-3.43,6.27a.64.64,0,0,1-.27.27Z"/><path class="cls-12" d="M122.15,148.64a.67.67,0,0,1-.67-.67h0v-7.41a.67.67,0,0,1,1.34,0V148A.67.67,0,0,1,122.15,148.64Z"/><path class="cls-12" d="M122.15,167.67a.67.67,0,0,1-.67-.67h0v-7.41a.67.67,0,0,1,1.34,0V167A.67.67,0,0,1,122.15,167.67Z"/><path class="cls-12" d="M135.37,154.48H128a.67.67,0,0,1,0-1.34h7.41a.68.68,0,0,1,.67.68A.67.67,0,0,1,135.37,154.48Z"/><path class="cls-12" d="M116.34,154.48h-7.41a.67.67,0,0,1,0-1.34h7.41a.68.68,0,0,1,.67.68A.67.67,0,0,1,116.34,154.48Z"/><line class="cls-13" x1="112.8" y1="163.13" x2="118.04" y2="157.89"/><path class="cls-12" d="M112.8,163.8a.66.66,0,0,1-.66-.67.68.68,0,0,1,.19-.47l5.24-5.24a.69.69,0,0,1,1,0,.68.68,0,0,1,0,1l-5.24,5.24A.66.66,0,0,1,112.8,163.8Z"/><line class="cls-13" x1="126.26" y1="149.67" x2="131.5" y2="144.43"/><path class="cls-12" d="M126.26,150.34a.6.6,0,0,1-.47-.19.68.68,0,0,1,0-1L131,144a.7.7,0,0,1,.95,0,.67.67,0,0,1,0,.94h0l-5.24,5.25A.66.66,0,0,1,126.26,150.34Z"/><line class="cls-13" x1="112.8" y1="144.43" x2="118.04" y2="149.67"/><path class="cls-12" d="M118,150.34a.6.6,0,0,1-.47-.19l-5.24-5.25a.66.66,0,0,1,0-.93h0a.7.7,0,0,1,1,0l5.24,5.24a.68.68,0,0,1,0,1A.63.63,0,0,1,118,150.34Z"/><line class="cls-13" x1="126.26" y1="157.89" x2="131.5" y2="163.13"/><path class="cls-12" d="M131.54,163.8a.63.63,0,0,1-.47-.2l-5.24-5.24a.66.66,0,0,1-.06-.94.67.67,0,0,1,.94-.07l.07.07,5.24,5.24a.67.67,0,0,1,0,.94h0A.67.67,0,0,1,131.54,163.8Z"/><rect class="cls-14" x="478.53" y="270.39" width="12.18" height="2.88" rx="1.32"/><path class="cls-15" d="M427.66,325.48a6,6,0,1,1-6-6A6,6,0,0,1,427.66,325.48Z"/><path class="cls-16" d="M495.07,272.7c9.41-4.52,12.78-17.6,8.12-26.94s-15.66-14.5-26.08-14-20.15,6-27.59,13.31c-7.46-9.16-22.5-10.83-31.78-3.52-9.12,7.18-7.6,21.9-.75,31.33-8,3.91-13.37,13.5-11.4,22.36,2.42,10.91,15.34,18.14,25.91,14.5,0,14.13,12.6,27.06,26.73,27.37s27.3-12.06,27.9-26.17c10.77,5,25.28-2.07,28-13.64S506.94,273,495.07,272.7Z"/><path class="cls-17" d="M495.33,273.14c10.33-5.08,13.22-19.34,7.62-28.9-6.64-11.34-21.24-15.07-33.35-11.77-7.78,2.11-14.72,6.66-20.45,12.25h.73c-6-7.2-16.37-9.88-25.24-7.25a19.37,19.37,0,0,0-10.82,7.64,20.72,20.72,0,0,0-2.87,13,30.31,30.31,0,0,0,5.6,15.1l.18-.71c-7.51,3.76-12.79,12.2-12,20.7.74,7.82,6.66,14.19,13.88,16.81a19.85,19.85,0,0,0,13,.3l-.65-.5c.07,11.35,7.84,21.8,18.25,26,10.76,4.34,22.81.57,30.35-8A27.67,27.67,0,0,0,486.62,311l-.77.44c8.47,3.84,18.95.78,24.81-6.24A18.36,18.36,0,0,0,515,292.34a21.93,21.93,0,0,0-5.6-13.08,20.41,20.41,0,0,0-14.38-7.07.5.5,0,0,0,0,1c9.32.33,17.26,8.25,18.74,17.28s-4.7,17.35-13.13,20.35a19.14,19.14,0,0,1-14.29-.33.54.54,0,0,0-.72.22.46.46,0,0,0-.06.23c-.53,10.86-8.45,20.6-18.59,24.2-10.5,3.72-21.78-.32-28.75-8.73A26.6,26.6,0,0,1,432,309.74a.51.51,0,0,0-.51-.51l-.14,0c-7,2.35-15,0-20.2-5.19a18.07,18.07,0,0,1-3.34-21.28,21.3,21.3,0,0,1,9.43-9.46.51.51,0,0,0,.19-.69h0c-5-7-7.67-17.29-3.66-25.36s14.29-11,22.7-9.27a22.18,22.18,0,0,1,12.69,7.49.52.52,0,0,0,.73,0c9.29-9.07,22.52-15.57,35.7-12.34a27,27,0,0,1,14.75,9.12,20.54,20.54,0,0,1,4.21,15.65c-.84,6-4.21,11.62-9.74,14.34C494.22,272.55,494.74,273.48,495.33,273.14Z"/><path class="cls-4" d="M455.83,286.48a28.25,28.25,0,0,1,3.67-4.71,23.88,23.88,0,0,0,2.59-3.17,5.28,5.28,0,0,0,.83-2.92,4.62,4.62,0,0,0-1.58-3.68,6.3,6.3,0,0,0-4.19-1.35,8.28,8.28,0,0,0-4.47,1.23,10.25,10.25,0,0,0-3.29,3.42l-6.47-4.46a16.05,16.05,0,0,1,6.07-6.22,18,18,0,0,1,9.06-2.2q6.15,0,9.87,3.08a10.54,10.54,0,0,1,3.71,8.55,12.86,12.86,0,0,1-.72,4.52,12.42,12.42,0,0,1-1.76,3.29c-.7.91-1.6,1.94-2.7,3.12a25.91,25.91,0,0,0-2.89,3.48,6.17,6.17,0,0,0-.91,3.42h-8.11A10.62,10.62,0,0,1,455.83,286.48Zm-.85,19a5,5,0,0,1-1.47-3.63,4.88,4.88,0,0,1,1.44-3.57,5.49,5.49,0,0,1,7.38,0,4.88,4.88,0,0,1,1.44,3.57,5.15,5.15,0,0,1-8.79,3.63Z"/><path class="cls-18" d="M357.54,99.56a44.37,44.37,0,0,1,9.64-62l.6-.44a45.67,45.67,0,0,1,63.25,10,44.2,44.2,0,0,1,1.1,50.66l3.52,13-14.28-1.65c-.2.15-.38.32-.58.47A45.66,45.66,0,0,1,357.54,99.56Z"/><path class="cls-19" d="M359.34,35.61S334.78,59,346.13,87.94"/><path class="cls-19" d="M346.82,89.61s3.32,7.14,6.16,10.56"/><polygon class="cls-4" points="392.13 92.09 369.78 76.08 375.37 68.29 390.35 79.02 410.22 54.42 417.68 60.45 392.13 92.09"/><path class="cls-20" d="M78.54,222.19H13.09A12.41,12.41,0,0,0,.68,234.6v47.26a12.41,12.41,0,0,0,12.41,12.41h52.8l12,12,1.93-12a12.41,12.41,0,0,0,11.11-12.34V234.6A12.41,12.41,0,0,0,78.54,222.19Z"/><path class="cls-21" d="M60.66,259.48a6.26,6.26,0,1,0,6.26-6.26,6.26,6.26,0,0,0-6.26,6.26Z"/><path class="cls-21" d="M38.86,259.48a6.26,6.26,0,1,0,6.26-6.26,6.26,6.26,0,0,0-6.26,6.26Z"/><path class="cls-21" d="M17.23,259.48a6.26,6.26,0,1,0,6.26-6.26h0a6.25,6.25,0,0,0-6.25,6.25Z"/></g></g></g></svg>