<svg width="1255" height="79" viewBox="0 0 1255 79" fill="none" xmlns="http://www.w3.org/2000/svg">
<path d="M1116.27 23.8473C1107.18 24.1831 1098.51 24.5326 1090.79 24.9601C1089.35 24.9916 1087.73 25.027 1086.51 25.0536C1087.04 25.1942 1085.31 25.3691 1082.02 25.5095C1017.25 28.2116 947.564 30.2447 878.946 32.4295C877.998 32.6438 877.032 32.7846 876.059 32.8504C871.32 33.3422 861.788 33.7485 851.895 33.8962L844.449 33.96C814.304 34.4005 784.248 34.8443 754.281 35.2911C748.148 35.6002 741.054 35.8771 733.296 36.0771C707.386 37.123 681.392 38.1478 654.816 39.0788C656.473 39.1492 657.51 39.256 657.496 39.3933C656.99 39.7393 650.834 40.1175 643.654 40.2592L632.795 40.4965L663.974 40.074C665.471 40.0412 666.86 40.0109 668.11 40.0444C679.508 39.7954 691.029 39.5436 702.741 39.2876C804.972 36.7564 901.079 33.4303 996.426 29.8239C997.997 29.7439 1000.44 29.6982 1001.84 29.7437C1002.76 29.7996 1002.6 29.9174 1000.85 30.0014C940.764 32.9818 888.796 36.3101 820.84 38.8839C739.97 41.9607 660.105 44.8024 577.199 47.4594C490.486 49.3545 410.283 51.9067 321.863 54.4329C202.422 57.8502 89.5845 60.4533 -27.291 63.0837C-71.0718 64.307 -111.225 63.7914 -116.941 61.9978C-120.275 60.8831 -110.374 59.5704 -92.3926 58.4161L-103.079 58.6497L-120.006 58.7836C-136.032 58.8979 -149.707 58.7095 -158.34 58.2282L-170.218 57.6656C-186.016 56.4883 -211.578 55.6994 -224.516 54.3454L-221.635 53.6658L-224.691 53.5575C-234.775 53.3211 -241.57 52.8834 -243.924 52.303L-242.973 51.5209C-240.909 50.5622 -235.905 49.6916 -227.833 48.7538C-228.129 48.4482 -227.16 48.1148 -225.065 47.7798C-231.98 47.1696 -235.265 46.4344 -229.825 45.4324C-233.965 45.3021 -233.294 44.9601 -228.353 44.6389C-226.651 44.5332 -224.6 44.4504 -222.5 44.3968L-222.549 44.3979C-224.836 44.2576 -225.516 44.2115 -228.589 44.0655L-235.109 44.0938L-255.593 44.2827C-263.788 44.1953 -268.841 43.9403 -268.841 43.9403C-277.968 42.8075 -277.968 42.8075 -276.533 42.2052C-276.005 42.1327 -275.411 42.0665 -274.783 41.9995C-282.033 41.9676 -282.546 41.9635 -284.499 41.9453C-286.453 41.9271 -287.953 41.8001 -287.953 41.8001C-288.274 41.5026 -288.274 41.5025 -289.517 41.4155C-289.917 41.3024 -289.828 41.1863 -289.828 41.1863C-285.783 40.7553 -285.783 40.7553 -285.703 40.6546C-284.745 40.5423 -283.432 40.4375 -283.432 40.4375L-275.991 40.115L-265.776 40.6911L-263.573 40.3689L-261.192 40.6823L-262.539 40.3767L-257.39 40.4697L-263.277 40.3015C-251.108 40.1574 -251.108 40.1574 -246.236 40.0433C-241.174 39.9327 -236.841 39.7923 -236.312 39.7731C-236.736 39.6834 -236.763 39.6079 -236.763 39.6079C-223.758 39.4531 -223.758 39.453 -211.075 39.3205C-209.899 39.3709 -208.963 39.419 -208.093 39.4761C-206.879 39.3582 -204.457 39.252 -201.95 39.2201L-195.332 39.1363L-193.902 39.0594L-188.29 38.7769L-187.133 38.7135L-187.066 38.7121L-162.781 37.5038C-158.843 37.4558 -155.178 37.429 -151.719 37.4143L-154.94 37.34C-157.019 37.2712 -155.131 36.9407 -156.265 36.935C-184.052 36.9104 -214.33 37.3133 -244.171 37.6305C-249.521 37.7855 -254.545 37.7202 -255.336 37.4939C-256.127 37.2676 -252.22 36.9614 -246.737 36.8111C-186.303 33.8992 -112.041 32.4894 -49.8902 32.4024C-33.5267 32.2022 -17.092 31.9825 -0.585988 31.7436L-2.94657 31.643L9.86191 31.5914L11.2432 31.5612L1.54606 31.2326L-5.18175 31.2198C-43.4316 31.835 -78.1549 31.7564 -115.113 32.0236C-134.97 32.1683 -152.052 32.0239 -170.836 32.0538C-175.674 32.1595 -179.021 32.0119 -178.455 31.7711C-177.889 31.5304 -173.393 31.3027 -168.669 31.2223C-106.025 29.4802 -34.5142 28.2904 15.689 29.0127C27.1278 28.7627 38.1482 28.6817 47.295 28.8168L47.8078 28.8056L40.7592 28.5028C49.3139 28.4301 53.8793 28.7033 61.6823 28.6927C60.7846 28.5067 59.6883 28.3251 58.7906 28.1392C100.981 27.6054 146.616 26.4329 185.7 26.4619L190.209 26.4243C207.014 25.6231 224.018 24.8403 243.95 24.3438L223.839 24.5854C238.316 24.0025 252.679 23.5135 268.179 23.2052C310.147 22.3413 357.139 22.2659 379.365 23.3941C460.698 21.4187 542.155 19.4862 623.342 17.3007C626.245 17.1584 629.153 17.1915 632.05 17.3997C632.484 17.5654 629.717 17.8085 625.524 17.923C567.327 19.8268 508.279 21.4598 449.115 23.0346C498.574 22.2734 548.281 21.4839 598.967 20.4447L618.427 19.9433C624.862 19.8027 631.239 19.6633 637.609 19.6154C702.355 18.2004 763.802 16.9717 829.836 15.0717C886.244 13.4431 935.587 11.946 991.751 10.1475C1070.62 7.62445 1142.47 5.24723 1220.43 3.53576C1230.8 3.256 1240.41 3.38095 1241.63 3.83377C1242.86 4.28658 1235.38 4.86109 1224.99 5.14158C1062.44 10.1406 902.869 15.3789 732.928 18.8645L678.619 19.9677C678.852 20.0235 679.068 20.0797 679.07 20.1482C679.075 20.3993 677.377 20.6724 674.511 20.933C694.881 20.5487 715.387 20.1995 736.029 19.8854C793.31 18.1006 850.666 16.3142 911.754 15.2837C953.709 14.5647 991.685 14.2981 1030.49 13.9447C1079.64 12.5813 1128.65 11.1373 1178.29 9.80865C1179.88 9.72988 1181.47 9.72821 1183.05 9.80363C1183.77 9.8794 1182.7 9.99403 1180.7 10.0682C1146.57 11.3927 1111.59 12.5987 1076.29 13.7584C1081.87 13.9259 1085.19 14.2339 1084.75 14.6546C1084.31 15.0753 1080.01 15.5727 1073.42 15.9833L1097.41 15.4971C1102.37 15.3887 1106.25 15.4789 1106.12 15.695C1105.98 15.9112 1102.08 16.1791 1097.37 16.2744C1064.72 16.988 1032.1 17.6704 999.526 18.3215C960.402 19.4125 921.417 20.4701 882.216 21.4943C886.018 21.529 889.813 21.7868 893.578 22.2661L911.774 21.8685C1022.49 18.2536 1135.83 15.1142 1250.12 12.8524C1251.5 12.7619 1252.89 12.7902 1254.26 12.937C1253.04 13.1442 1251.8 13.23 1250.56 13.193C1216.06 13.8709 1181.66 14.6227 1147.36 15.4484L1147.5 15.4453C1148.88 15.476 1149.16 15.5765 1147.63 15.6785C1146.31 15.7759 1143.61 15.8348 1142.25 15.7961C1140.66 15.7624 1140.8 15.6526 1142.09 15.5635C1078.2 17.1197 1014.73 18.9179 952.175 20.8865C1010.35 19.5187 1068.5 18.2478 1126.63 17.0739C1132.97 16.8135 1139.28 16.5462 1145.71 16.2915C1147.29 16.2266 1148.88 16.2352 1150.46 16.3171C1150.95 16.3825 1149.64 16.5102 1147.87 16.5715L1142.54 16.7794C1153.54 16.5846 1162.04 16.8101 1161.87 17.3163C1161.27 17.8547 1151.83 18.4644 1140.38 18.6918C1109.79 19.4568 1079.26 20.1848 1048.81 20.8758L1038.89 21.184L1028.97 21.6444C1076.39 20.8059 1123.66 20.0114 1170.76 19.2611C1174.8 19.1729 1178.21 19.2354 1178.34 19.4153C1178.47 19.5952 1175.17 19.8195 1171.12 19.9157C1088.24 22.4502 1004.33 24.7788 920.06 26.9251C892.41 28.2907 864.679 29.7113 836.442 31.105C839.99 31.0274 843.596 30.9486 847.194 30.87C938.82 28.8675 1016.52 24.9388 1105.19 22.5441C1106.64 22.4607 1108.1 22.4772 1109.55 22.5935C1109.79 22.6795 1108.29 22.8037 1106.03 22.8531C1062.74 24.1037 1023.25 25.7358 980.349 27.2062C944.793 28.4248 910.949 29.5756 877.895 30.8918C945.497 29.2012 1010.3 26.818 1077.26 24.9207C1080.19 24.811 1083.14 24.7923 1085.01 24.8504C1085.55 24.75 1086.11 24.6946 1086.66 24.6849C1095.02 24.2508 1104.15 23.8686 1113.48 23.5202C1115.13 23.4339 1116.79 23.4282 1118.44 23.503C1119.35 23.6355 1118.27 23.7505 1116.27 23.8473ZM-60.2755 38.8264L-61.932 38.756L-56.0141 38.817L-47.7265 39.3972C-47.7265 39.3972 -54.0383 39.1088 -60.2755 38.8264ZM-163.76 43.8059L-163.703 43.8046L-168.467 43.4976L-163.76 43.8059ZM497.298 22.9256C461.732 23.7028 426.535 24.2817 391.415 24.5849L417.118 23.9013C443.761 23.5424 470.488 23.2171 497.298 22.9256ZM-129.78 37.5514C-120.408 37.7349 -113.111 38.0474 -106.211 38.3915C-100.059 38.1657 -93.6333 37.9948 -87.1153 37.8751C-69.621 37.5461 -52.5643 37.2647 -35.7795 37.0349C-37.9604 36.8237 -33.94 36.7663 -31.8812 36.6909L-25.5718 36.4921C-43.4825 36.7008 -61.4432 36.8878 -79.7187 37.0664C-96.1905 37.2284 -114.1 37.5057 -129.78 37.5514ZM-254.807 41.2812L-256.339 41.2233L-252.998 40.762L-254.807 41.2812ZM-260.069 42.0585L-257.504 42.0558C-258.352 42.2026 -259.222 42.2035 -260.069 42.0585ZM-236.527 42.0389C-237.919 41.9627 -238.773 41.9128 -239.84 41.8981L-236.527 42.0389ZM-219.579 53.0879L-210.449 50.9471L-220.408 53.0299L-219.579 53.0879Z" fill="black"/>
<path d="M645.463 68.1706C643.274 68.2514 641.186 68.3355 639.328 68.4384C638.982 68.446 638.592 68.4545 638.299 68.4609C638.427 68.4948 638.01 68.5369 637.218 68.5707C621.63 69.221 604.857 69.7104 588.341 70.2362C588.113 70.2878 587.881 70.3217 587.646 70.3375C586.506 70.4559 584.212 70.5537 581.83 70.5892L580.038 70.6046C572.783 70.7106 565.549 70.8174 558.336 70.925C556.86 70.9994 555.153 71.066 553.285 71.1141C547.049 71.3659 540.793 71.6125 534.396 71.8366C534.795 71.8535 535.045 71.8792 535.041 71.9123C534.92 71.9956 533.438 72.0866 531.71 72.1207L529.096 72.1778L536.6 72.0761C536.961 72.0682 537.295 72.0609 537.596 72.069C540.339 72.0091 543.112 71.9485 545.931 71.8869C570.537 71.2776 593.668 70.4771 616.617 69.6091C616.995 69.5898 617.582 69.5788 617.919 69.5898C618.143 69.6032 618.103 69.6316 617.682 69.6518C603.22 70.3691 590.712 71.1702 574.356 71.7897C554.892 72.5302 535.669 73.2142 515.715 73.8537C494.844 74.3098 475.541 74.9241 454.259 75.5321C425.511 76.3546 398.353 76.9811 370.223 77.6143C359.685 77.9087 350.021 77.7846 348.645 77.3529C347.843 77.0846 350.226 76.7686 354.554 76.4908L351.982 76.547L347.907 76.5793C344.05 76.6068 340.759 76.5614 338.681 76.4456L335.822 76.3102C332.02 76.0268 325.867 75.837 322.753 75.5111L323.447 75.3475L322.711 75.3214C320.284 75.2645 318.649 75.1592 318.082 75.0195L318.311 74.8312C318.808 74.6005 320.012 74.3909 321.955 74.1652C321.884 74.0917 322.117 74.0115 322.621 73.9308C320.957 73.7839 320.166 73.607 321.475 73.3658C320.479 73.3345 320.64 73.2521 321.83 73.1748C322.24 73.1494 322.733 73.1295 323.239 73.1166L323.227 73.1168C322.676 73.0831 322.513 73.072 321.773 73.0368L320.204 73.0436L315.273 73.0891C313.301 73.0681 312.085 73.0067 312.085 73.0067C309.888 72.734 309.888 72.734 310.233 72.5891C310.361 72.5716 310.504 72.5557 310.655 72.5396C308.91 72.5319 308.786 72.5309 308.316 72.5265C307.846 72.5222 307.485 72.4916 307.485 72.4916C307.408 72.42 307.408 72.42 307.108 72.399C307.012 72.3718 307.034 72.3438 307.034 72.3438C308.007 72.2401 308.007 72.2401 308.027 72.2159C308.257 72.1888 308.573 72.1636 308.573 72.1636L310.364 72.086L312.823 72.2247L313.353 72.1471L313.926 72.2225L313.602 72.149L314.841 72.1714L313.424 72.1309C316.353 72.0962 316.353 72.0962 317.526 72.0687C318.744 72.0421 319.787 72.0083 319.914 72.0037C319.812 71.9821 319.806 71.9639 319.806 71.9639C322.936 71.9267 322.936 71.9267 325.988 71.8948C326.271 71.9069 326.497 71.9185 326.706 71.9322C326.998 71.9039 327.581 71.8783 328.185 71.8706L329.777 71.8504L330.122 71.8319L331.472 71.7639L331.751 71.7487L331.767 71.7483L337.612 71.4575C338.56 71.446 339.442 71.4395 340.274 71.436L339.499 71.4181C338.999 71.4015 339.453 71.322 339.18 71.3206C332.492 71.3147 325.205 71.4117 318.023 71.488C316.735 71.5253 315.526 71.5096 315.335 71.4551C315.145 71.4007 316.085 71.327 317.405 71.2908C331.951 70.5899 349.824 70.2506 364.783 70.2297C368.722 70.1815 372.677 70.1286 376.65 70.0711L376.082 70.0469L379.165 70.0345L379.497 70.0272L377.163 69.9481L375.544 69.945C366.338 70.0931 357.98 70.0742 349.085 70.1385C344.306 70.1733 340.194 70.1386 335.673 70.1458C334.509 70.1712 333.703 70.1357 333.84 70.0777C333.976 70.0198 335.058 69.965 336.195 69.9457C351.272 69.5263 368.484 69.24 380.567 69.4138C383.32 69.3537 385.973 69.3342 388.174 69.3667L388.298 69.364L386.601 69.2911C388.66 69.2736 389.759 69.3394 391.637 69.3368C391.421 69.292 391.157 69.2483 390.941 69.2036C401.096 69.0751 412.08 68.7929 421.486 68.7999L422.572 68.7908C426.617 68.598 430.709 68.4096 435.507 68.2901L430.666 68.3482C434.15 68.208 437.607 68.0903 441.338 68.0161C451.439 67.8081 462.75 67.79 468.099 68.0615C487.675 67.5861 507.28 67.1209 526.821 66.5949C527.52 66.5607 528.22 66.5686 528.917 66.6188C529.021 66.6586 528.355 66.7171 527.346 66.7447C513.339 67.2029 499.127 67.596 484.887 67.975C496.791 67.7918 508.755 67.6018 520.954 67.3516L525.638 67.231C527.187 67.1971 528.722 67.1636 530.255 67.152C545.838 66.8115 560.628 66.5157 576.521 66.0584C590.098 65.6664 601.974 65.3061 615.492 64.8732C634.475 64.266 651.768 63.6938 670.533 63.2819C673.027 63.2145 675.34 63.2446 675.635 63.3536C675.93 63.4626 674.13 63.6009 671.628 63.6684C632.505 64.8716 594.099 66.1324 553.197 66.9713L540.125 67.2368C540.181 67.2503 540.234 67.2638 540.234 67.2803C540.235 67.3407 539.826 67.4064 539.137 67.4691C544.039 67.3767 548.975 67.2926 553.943 67.217C567.73 66.7874 581.535 66.3575 596.238 66.1094C606.336 65.9364 615.476 65.8722 624.817 65.7872C636.646 65.459 648.441 65.1115 660.39 64.7917C660.772 64.7727 661.154 64.7723 661.535 64.7905C661.707 64.8087 661.451 64.8363 660.969 64.8542C652.754 65.1729 644.336 65.4632 635.84 65.7423C637.181 65.7827 637.981 65.8568 637.876 65.958C637.771 66.0593 636.736 66.179 635.148 66.2778L640.922 66.1608C642.116 66.1347 643.051 66.1564 643.018 66.2085C642.985 66.2605 642.047 66.325 640.914 66.3479C633.055 66.5197 625.204 66.6839 617.363 66.8406C607.946 67.1032 598.563 67.3577 589.128 67.6043C590.043 67.6126 590.957 67.6746 591.863 67.79L596.242 67.6943C622.89 66.8243 650.169 66.0687 677.678 65.5243C678.01 65.5025 678.344 65.5093 678.674 65.5446C678.38 65.5945 678.082 65.6152 677.783 65.6062C669.479 65.7694 661.2 65.9504 652.945 66.1491L652.979 66.1483C653.312 66.1557 653.378 66.1799 653.01 66.2045C652.692 66.2279 652.043 66.2421 651.714 66.2328C651.332 66.2247 651.367 66.1982 651.677 66.1768C636.3 66.5513 621.023 66.9842 605.967 67.458C619.969 67.1287 633.965 66.8229 647.955 66.5403C649.481 66.4777 650.999 66.4133 652.547 66.352C652.928 66.3364 653.31 66.3385 653.691 66.3582C653.808 66.3739 653.492 66.4046 653.069 66.4194L651.785 66.4694C654.433 66.4226 656.478 66.4768 656.436 66.5987C656.292 66.7283 654.021 66.875 651.265 66.9297C643.901 67.1139 636.555 67.2891 629.225 67.4554L626.837 67.5296L624.449 67.6404C635.864 67.4386 647.24 67.2474 658.578 67.0668C659.549 67.0455 660.37 67.0606 660.401 67.1039C660.432 67.1472 659.638 67.2012 658.663 67.2243C638.716 67.8343 618.521 68.3948 598.237 68.9114C591.582 69.2401 584.907 69.582 578.111 69.9174C578.965 69.8987 579.833 69.8798 580.699 69.8609C602.752 69.3789 621.453 68.4333 642.795 67.8569C643.145 67.8368 643.496 67.8408 643.845 67.8688C643.903 67.8895 643.541 67.9194 642.998 67.9313C632.578 68.2323 623.073 68.6251 612.748 68.979C604.19 69.2723 596.044 69.5493 588.088 69.8661C604.359 69.4592 619.957 68.8856 636.074 68.4289C636.778 68.4025 637.487 68.398 637.938 68.412C638.069 68.3878 638.202 68.3745 638.335 68.3722C640.348 68.2677 642.545 68.1757 644.79 68.0919C645.188 68.0711 645.587 68.0697 645.985 68.0877C646.203 68.1196 645.942 68.1473 645.463 68.1706ZM362.284 71.7758L361.885 71.7589L363.309 71.7736L365.304 71.9132C365.304 71.9132 363.785 71.8438 362.284 71.7758ZM337.376 72.9743L337.39 72.974L336.243 72.9002L337.376 72.9743ZM496.484 67.9487C487.924 68.1358 479.452 68.2751 470.999 68.3481L477.186 68.1836C483.598 68.0972 490.031 68.0189 496.484 67.9487ZM345.555 71.469C347.811 71.5131 349.567 71.5884 351.228 71.6712C352.708 71.6168 354.255 71.5757 355.824 71.5469C360.034 71.4677 364.14 71.4 368.18 71.3447C367.655 71.2938 368.622 71.28 369.118 71.2619L370.636 71.214C366.326 71.2642 362.003 71.3092 357.604 71.3522C353.639 71.3912 349.329 71.458 345.555 71.469ZM315.463 72.3667L315.094 72.3528L315.898 72.2417L315.463 72.3667ZM314.196 72.5538L314.814 72.5531C314.609 72.5885 314.4 72.5887 314.196 72.5538ZM319.862 72.549C319.527 72.5307 319.322 72.5187 319.065 72.5152L319.862 72.549ZM323.942 75.2084L326.139 74.6931L323.742 75.1944L323.942 75.2084Z" fill="black"/>
</svg>
